<svg height="512" viewBox="0 0 58 58" width="512" xmlns="http://www.w3.org/2000/svg"><g id="Page-1" fill="none" fill-rule="evenodd"><g id="040---Bot-Winking" fill-rule="nonzero"><path id="Rectangle-path" d="m5 2h2v16.96h-2z" fill="#a5a5a4"/><path id="Rectangle-path" d="m51 2h2v16.96h-2z" fill="#a5a5a4"/><path id="Shape" d="m58 31.636c0 19.773-12.984 26.364-29 26.364s-29-6.591-29-26.364c0-18.454 12.984-31.636 29-31.636s29 13.182 29 31.636z" fill="#3b97d3"/><rect id="Rectangle-path" fill="#547580" height="28" rx="14" width="50" x="4" y="21"/><circle id="Oval" cx="6" cy="2" fill="#3b97d3" r="2"/><circle id="Oval" cx="52" cy="2" fill="#3b97d3" r="2"/><path id="Shape" d="m32 18h-6c-.5522847 0-1-.4477153-1-1s.4477153-1 1-1h6c.5522847 0 1 .4477153 1 1s-.4477153 1-1 1z" fill="#9fc9d3"/><path id="Shape" d="m30 15h-2c-.5522847 0-1-.4477153-1-1s.4477153-1 1-1h2c.5522847 0 1 .4477153 1 1s-.4477153 1-1 1z" fill="#9fc9d3"/><circle id="Oval" cx="15" cy="32" fill="#81ccb8" r="4"/><g fill="#35495e"><path id="Shape" d="m29 44c-2.1190794-.0390048-4.1500155-.8550091-5.707-2.293-.379565-.3918367-.3750451-1.0155809.0101585-1.4018758.3852037-.3862949 1.0089326-.3925793 1.4018415-.0141242 1.1842952 1.0600141 2.7061954 1.665585 4.295 1.709 1.5906666-.0425163 3.1145473-.6485247 4.3-1.71.3931693-.378225 1.016933-.3715217 1.4018833.0150654.3849502.3865872.3890067 1.0103737.0091167 1.4019346-1.5580082 1.4388999-3.590534 2.2549709-5.711 2.293z"/><path id="Shape" d="m45 36c-.1543931.001545-.307047-.0326823-.446-.1l-6-3c-.3394145-.1691635-.5539339-.5157659-.5539339-.895s.2145194-.7258365.5539339-.895l6-3c.4942949-.2468713 1.0951287-.0462949 1.342.448s.0462949 1.0951287-.448 1.342l-4.212 2.1 4.211 2.1c.4214702.2040519.6449027.6732513.5376645 1.129074-.1072383.4558226-.5164267.7761896-.9846645.770926z"/></g></g></g></svg>